<?xml version="1.0" encoding="UTF-8" standalone="no"?>
<svg
   xmlns:dc="http://purl.org/dc/elements/1.1/"
   xmlns:cc="http://creativecommons.org/ns#"
   xmlns:rdf="http://www.w3.org/1999/02/22-rdf-syntax-ns#"
   xmlns:svg="http://www.w3.org/2000/svg"
   xmlns="http://www.w3.org/2000/svg"
   id="svg192"
   version="1.2"
   viewBox="0 0 120.77348 117.79611"
   height="117.7961pt"
   width="120.77348pt">
  <metadata
     id="metadata196">
    <rdf:RDF>
      <cc:Work
         rdf:about="">
        <dc:format>image/svg+xml</dc:format>
        <dc:type
           rdf:resource="http://purl.org/dc/dcmitype/StillImage" />
        <dc:title></dc:title>
      </cc:Work>
    </rdf:RDF>
  </metadata>
  <defs
     id="defs5">
    <clipPath
       id="clip1">
      <path
         id="path2"
         d="M 0,224 H 530.96875 V 499.98828 H 0 Z m 0,0" />
    </clipPath>
  </defs>
  <g
     transform="translate(-691.69721,36.997742)"
     id="surface1031">
    <g
       transform="translate(401.47503,-43.431336)"
       id="g3886">
      <path
         id="path13"
         transform="scale(0.75000003)"
         d="m 467.47852,8.578125 c -44.46354,0 -80.51563,36.052735 -80.51563,80.521484 0,35.572911 23.06771,65.754561 55.0625,76.400391 4.02083,0.74479 5.5,-1.74479 5.5,-3.875 0,-1.91667 -0.0729,-8.26107 -0.10937,-14.99023 -22.40104,4.86979 -27.125,-9.5 -27.125,-9.5 -3.66667,-9.30729 -8.94141,-11.78125 -8.94141,-11.78125 -7.30729,-4.9948 0.55078,-4.89454 0.55078,-4.89454 8.08333,0.56771 12.34375,8.30079 12.34375,8.30079 7.17708,12.30729 18.83399,8.75065 23.42774,6.69335 0.72395,-5.20833 2.81315,-8.76106 5.11523,-10.77148 -17.88542,-2.03646 -36.6875,-8.93685 -36.6875,-39.791015 0,-8.791666 3.14583,-15.973959 8.29687,-21.609375 -0.83333,-2.031251 -3.58854,-10.2181 0.78125,-21.306641 0,0 6.75912,-2.166666 22.14454,8.25 6.42708,-1.78125 13.3125,-2.677735 20.15625,-2.708984 6.84375,0.03125 13.73437,0.927734 20.17187,2.708984 15.36458,-10.416666 22.12109,-8.25 22.12109,-8.25 4.38021,11.088541 1.6237,19.27539 0.78516,21.306641 5.16146,5.635416 8.28711,12.817709 8.28711,21.609375 0,30.927085 -18.83334,37.733725 -36.76563,39.728515 2.89063,2.5 5.4629,7.40169 5.4629,14.91211 0,10.77083 -0.0937,19.44271 -0.0937,22.09375 0,2.14583 1.44791,4.6569 5.53125,3.86523 31.97395,-10.66145 55.01562,-40.82812 55.01562,-76.390621 0,-44.468749 -36.04688,-80.521484 -80.51562,-80.521484 z M 416.30078,122.83594 c -0.4314,-0.063 -0.81836,0.0781 -0.94726,0.38281 -0.1875,0.40625 0.14127,0.94727 0.7246,1.21289 0.57292,0.27083 1.20378,0.1569 1.38086,-0.24414 0.20313,-0.40104 -0.1302,-0.95312 -0.71875,-1.21875 -0.14583,-0.0677 -0.29565,-0.11182 -0.43945,-0.13281 z m 2.88867,2.76953 c -0.13224,0.0254 -0.2526,0.0814 -0.35156,0.16992 -0.39062,0.36458 -0.29167,1.11524 0.23438,1.67773 0.51041,0.5625 1.26106,0.72331 1.64648,0.36915 0.40104,-0.35938 0.29753,-1.10417 -0.22852,-1.67188 -0.39453,-0.42187 -0.90405,-0.62109 -1.30078,-0.54492 z m 3.33594,4.10351 c -0.15291,0.008 -0.29687,0.0547 -0.42187,0.14063 -0.50521,0.34375 -0.50456,1.19726 -0.01,1.91601 0.5,0.71355 1.30794,1.03711 1.80273,0.69336 0.5,-0.34895 0.49935,-1.20833 0.01,-1.9375 -0.37891,-0.53125 -0.92212,-0.83789 -1.38086,-0.8125 z m 3.86328,4.57618 c -0.26877,0.0125 -0.50781,0.10546 -0.67578,0.28711 -0.44271,0.48958 -0.24414,1.41276 0.45899,2.05859 0.68749,0.66667 1.62955,0.79622 2.07226,0.30664 0.46875,-0.47917 0.25651,-1.4056 -0.44141,-2.05664 -0.43294,-0.41016 -0.96611,-0.61661 -1.41406,-0.5957 z m 5.86133,3.49609 c -0.65283,-0.006 -1.19922,0.2832 -1.34375,0.75586 -0.18229,0.64062 0.41081,1.38021 1.32227,1.65625 0.91145,0.26562 1.8177,-0.0221 2.01562,-0.65234 0.1875,-0.64063 -0.41015,-1.37435 -1.31641,-1.6504 -0.23046,-0.0716 -0.46012,-0.10725 -0.67773,-0.10937 z m 13.47266,0.29297 c -0.21599,-0.0234 -0.44727,-0.0163 -0.68555,0.0254 -0.93229,0.17187 -1.61068,0.83333 -1.49609,1.5 0.11979,0.64062 0.98437,1.04102 1.92187,0.86914 0.94792,-0.17708 1.61458,-0.83919 1.5,-1.49023 -0.0898,-0.49219 -0.59228,-0.83399 -1.24023,-0.9043 z m -6.63477,0.77539 c -0.95833,0.0156 -1.71875,0.5625 -1.71875,1.23437 0.0104,0.65105 0.79232,1.18685 1.75586,1.16602 0.95833,-0.0104 1.72982,-0.56315 1.70898,-1.22461 0,-0.66146 -0.78776,-1.19661 -1.74609,-1.17578 z"
         style="fill:#191714;fill-opacity:1;fill-rule:evenodd;stroke:none;stroke-width:1.33333325" />
    </g>
  </g>
</svg>
