<?xml version="1.0" encoding="UTF-8" standalone="no"?>
<svg
   xmlns:dc="http://purl.org/dc/elements/1.1/"
   xmlns:cc="http://creativecommons.org/ns#"
   xmlns:rdf="http://www.w3.org/1999/02/22-rdf-syntax-ns#"
   xmlns:svg="http://www.w3.org/2000/svg"
   xmlns="http://www.w3.org/2000/svg"
   id="svg192"
   version="1.2"
   viewBox="0 0 120.7735 117.79172"
   height="117.79171pt"
   width="120.7735pt">
  <metadata
     id="metadata196">
    <rdf:RDF>
      <cc:Work
         rdf:about="">
        <dc:format>image/svg+xml</dc:format>
        <dc:type
           rdf:resource="http://purl.org/dc/dcmitype/StillImage" />
        <dc:title></dc:title>
      </cc:Work>
    </rdf:RDF>
  </metadata>
  <defs
     id="defs5">
    <clipPath
       id="clip1">
      <path
         id="path2"
         d="M 0,224 H 530.96875 V 499.98828 H 0 Z m 0,0" />
    </clipPath>
  </defs>
  <g
     transform="translate(-707.65355,-257.22716)"
     id="surface1031">
    <path
       id="path103"
       d="m 768.04027,257.22716 c -33.34765,0 -60.38672,27.03516 -60.38672,60.38673 0,26.67968 17.30079,49.31591 41.29688,57.30029 3.01563,0.55859 4.125,-1.30859 4.125,-2.90625 0,-1.4375 -0.0547,-6.19433 -0.082,-11.24121 -16.80079,3.65234 -20.34376,-7.125 -20.34376,-7.125 -2.74999,-6.98047 -6.70752,-8.83594 -6.70752,-8.83594 -5.48046,-3.74609 0.41456,-3.67236 0.41456,-3.67236 6.0625,0.42578 9.25781,6.22266 9.25781,6.22266 5.38282,9.23436 14.12548,6.56591 17.5708,5.02294 0.54296,-3.90234 2.1084,-6.56934 3.83496,-8.07715 -13.41406,-1.52735 -27.51563,-6.7041 -27.51563,-29.84473 0,-6.59375 2.35938,-11.98047 6.22266,-16.20702 -0.625,-1.52345 -2.6914,-7.66359 0.58594,-15.97998 0,0 5.0708,-1.62501 16.60986,6.1875 4.82031,-1.33595 9.98439,-2.00831 15.11719,-2.03175 5.13282,0.0234 10.30079,0.6958 15.12891,2.03175 11.52344,-7.81251 16.58936,-6.1875 16.58936,-6.1875 3.28515,8.31639 1.21923,14.45653 0.59033,15.97998 3.87109,4.22655 6.21533,9.61327 6.21533,16.20702 0,23.19532 -14.125,28.30177 -27.57422,29.79786 2.16797,1.875 4.09717,5.5498 4.09717,11.18262 0,8.07811 -0.0703,14.58203 -0.0703,16.57031 0,1.60937 1.08594,3.49268 4.14844,2.89892 23.98047,-7.9961 41.26173,-30.62109 41.26173,-57.29296 0,-33.35157 -27.03516,-60.38673 -60.38673,-60.38673 z m -38.3833,85.68897 c -0.32355,-0.0482 -0.61377,0.0557 -0.71045,0.28711 -0.14062,0.30469 0.10596,0.71191 0.54346,0.91113 0.42969,0.20313 0.90137,0.11622 1.03418,-0.18456 0.15234,-0.30078 -0.0977,-0.71485 -0.53906,-0.91407 -0.10938,-0.0508 -0.22028,-0.0836 -0.32813,-0.0996 z m 2.1665,2.07862 c -0.0992,0.019 -0.18945,0.061 -0.26367,0.12744 -0.29297,0.27344 -0.21875,0.83496 0.17578,1.25683 0.38282,0.42188 0.9458,0.54394 1.23487,0.27833 0.30078,-0.26954 0.22168,-0.82813 -0.17285,-1.25391 -0.2959,-0.31641 -0.67658,-0.46582 -0.97413,-0.40869 z m 2.50196,3.07763 c -0.11469,0.006 -0.22266,0.0395 -0.31641,0.10401 -0.37909,0.2578 -0.37841,0.89794 -0.007,1.43701 0.375,0.53513 0.97949,0.77783 1.35058,0.52002 0.37518,-0.26172 0.37597,-0.90625 0.009,-1.45313 -0.28418,-0.39847 -0.69159,-0.62696 -1.03564,-0.60791 z m 2.896,3.43066 c -0.20158,0.009 -0.37941,0.0806 -0.50538,0.21681 -0.33204,0.36717 -0.18311,1.0581 0.34424,1.54248 0.51562,0.49999 1.22217,0.59716 1.5542,0.22998 0.35157,-0.35937 0.19092,-1.0542 -0.33252,-1.54248 -0.3247,-0.30762 -0.72459,-0.46246 -1.06054,-0.44679 z m 4.39599,2.62354 c -0.48963,-0.005 -0.89795,0.21095 -1.00635,0.56543 -0.13672,0.48047 0.30811,1.03516 0.9917,1.24219 0.6836,0.19922 1.36329,-0.0151 1.51172,-0.4878 0.14063,-0.48046 -0.30908,-1.03222 -0.98877,-1.23925 -0.17285,-0.0537 -0.3451,-0.079 -0.5083,-0.0806 z m 10.10596,0.21827 c -0.16199,-0.0176 -0.33691,-0.0122 -0.51563,0.019 -0.69922,0.12889 -1.2065,0.625 -1.1206,1.125 0.0898,0.48046 0.73827,0.78076 1.44141,0.65185 0.71092,-0.13281 1.21089,-0.62792 1.125,-1.11621 -0.0674,-0.36913 -0.44422,-0.62695 -0.93018,-0.67968 z m -4.97607,0.58154 c -0.71876,0.0117 -1.28907,0.42187 -1.28907,0.92578 0.008,0.48828 0.59424,0.89011 1.3169,0.87451 0.71875,-0.008 1.29587,-0.42091 1.28027,-0.91699 0,-0.49609 -0.58936,-0.8989 -1.3081,-0.8833 z"
       style="fill:#ffffff;fill-opacity:1;fill-rule:evenodd;stroke:none;stroke-width:1" />
  </g>
</svg>
